HIERARCHY
ROOT hip
{
	OFFSET 0.000000 0.000000 0.000000
	CHANNELS 6 Xposition Yposition Zposition Xrotation Zrotation Yrotation 
	JOINT abdomen
	{
		OFFSET 0.000000 3.422050 0.000000
		CHANNELS 3 Xrotation Zrotation Yrotation 
		JOINT chest
		{
			OFFSET 0.000000 8.486693 -0.684411
			CHANNELS 3 Xrotation Zrotation Yrotation 
			JOINT neck
			{
				OFFSET 0.000000 10.266162 -0.273764
				CHANNELS 3 Xrotation Zrotation Yrotation 
				JOINT head
				{
					OFFSET 0.000000 3.148285 0.000000
					CHANNELS 3 Xrotation Zrotation Yrotation 
					End Site
					{
						OFFSET 0.000000 3.148289 0.000000
					}
				}
			}
			JOINT lCollar
			{
				OFFSET 3.422053 6.707223 -0.821293
				CHANNELS 3 Yrotation Zrotation Xrotation 
				JOINT lShldr
				{
					OFFSET 3.285171 0.000000 0.000000
					CHANNELS 3 Zrotation Yrotation Xrotation 
					JOINT lForeArm
					{
						OFFSET 10.129278 0.000000 0.000000
						CHANNELS 3 Yrotation Zrotation Xrotation 
						JOINT lHand
						{
							OFFSET 8.486692 0.000000 0.000000
							CHANNELS 3 Zrotation Yrotation Xrotation 
							End Site
							{
								OFFSET 4.106464 0.000000 0.000000
							}
						}
					}
				}
			}
			JOINT rCollar
			{
				OFFSET -3.558935 6.707223 -0.821293
				CHANNELS 3 Yrotation Zrotation Xrotation 
				JOINT rShldr
				{
					OFFSET -3.148289 0.000000 0.000000
					CHANNELS 3 Zrotation Yrotation Xrotation 
					JOINT rForeArm
					{
						OFFSET -10.266159 0.000000 0.000000
						CHANNELS 3 Yrotation Zrotation Xrotation 
						JOINT rHand
						{
							OFFSET -8.349810 0.000000 0.000000
							CHANNELS 3 Zrotation Yrotation Xrotation 
							End Site
							{
								OFFSET -4.106464 0.000000 0.000000
							}
						}
					}
				}
			}
		}
	}
	JOINT lThigh
	{
		OFFSET 5.338403 -1.642589 1.368821
		CHANNELS 3 Xrotation Zrotation Yrotation 
		JOINT lShin
		{
			OFFSET -2.053232 -20.121670 0.000000
			CHANNELS 3 Xrotation Zrotation Yrotation 
			JOINT lFoot
			{
				OFFSET 0.000000 -19.300380 -1.231939
				CHANNELS 3 Xrotation Yrotation Zrotation 
				End Site
				{
					OFFSET 0.000000 -2.463878 4.653993
				}
			}
		}
	}
	JOINT rThigh
	{
		OFFSET -5.338403 -1.642589 1.368821
		CHANNELS 3 Xrotation Zrotation Yrotation 
		JOINT rShin
		{
			OFFSET 2.053232 -20.121670 0.000000
			CHANNELS 3 Xrotation Zrotation Yrotation 
			JOINT rFoot
			{
				OFFSET 0.000000 -19.300380 -1.231939
				CHANNELS 3 Xrotation Yrotation Zrotation 
				End Site
				{
					OFFSET 0.000000 -2.463878 4.653993
				}
			}
		}
	}
}
MOTION
Frames: 11
Frame Time: 0.033264
0.000000 7.793022 -6.977692 39.009918 -66.001007 -91.995468 9.154881 12.794290 17.741196 16.973696 17.595825 16.618212 12.707701 -26.021269 -1.740090 -3.438571 24.598543 -24.252876 32.948914 30.369963 -36.315350 -28.493534 -36.727989 -27.997112 -133.851181 21.561344 35.956909 34.420979 15.291998 -0.120103 -11.289195 7.288716 -6.242574 7.224903 11.741266 36.510475 60.215012 4.485778 -15.221807 -19.812954 9.573005 19.804365 -38.827766 15.055754 44.243889 51.141132 6.503413 -3.824421 22.102129 -0.283422 -7.227368 -52.861511 -25.275656 -51.835903 101.720039 -1.675497 0.847332 24.122177 0.076121 6.375665 
0.000000 7.793022 -6.977692 39.009914 -66.001007 -91.995461 9.154881 12.794290 17.741196 16.973696 17.595825 16.618212 12.707701 -26.021269 -1.740090 -3.540128 24.595015 -24.164131 32.948914 30.369963 -36.315350 -28.493532 -36.727985 -27.997108 -133.851181 21.561344 35.956909 34.420979 15.291998 -0.120103 -11.289195 7.288716 -6.242574 7.256527 11.799098 36.594028 60.001778 4.477840 -15.212976 -19.927197 9.595425 19.672985 -38.827766 15.055754 44.243889 51.141132 6.503413 -3.824420 22.102127 -0.283422 -7.227368 -52.861511 -25.275656 -51.835899 101.720039 -1.675497 0.847332 24.122175 0.076121 6.375665 
0.000000 7.793022 -6.977692 39.009914 -66.001007 -91.995461 9.154881 12.794290 17.741196 16.973696 17.595825 16.618212 12.707701 -26.021269 -1.740090 -3.641708 24.591640 -24.075375 32.948914 30.369963 -36.315350 -28.493532 -36.727985 -27.997108 -133.851181 21.561344 35.956909 34.420979 15.291998 -0.120103 -11.289195 7.288716 -6.242574 7.288245 11.856890 36.677635 59.788486 4.469866 -15.204165 -20.041519 9.617593 19.541542 -38.827766 15.055754 44.243889 51.141132 6.503413 -3.824420 22.102127 -0.283422 -7.227368 -52.861511 -25.275656 -51.835899 101.720039 -1.675497 0.847332 24.122175 0.076121 6.375665 
0.000000 7.793022 -6.977692 39.009914 -66.001007 -91.995461 9.154881 12.794290 17.741196 16.973696 17.595825 16.618212 12.707701 -26.021269 -1.740090 -3.743307 24.588392 -23.986586 32.948914 30.369963 -36.315350 -28.493532 -36.727985 -27.997108 -133.851181 21.561344 35.956909 34.420979 15.291998 -0.120103 -11.289195 7.288716 -6.242574 7.320059 11.914642 36.761299 59.575157 4.461860 -15.195389 -20.155912 9.639504 19.410025 -38.827766 15.055754 44.243889 51.141132 6.503413 -3.824420 22.102127 -0.283422 -7.227368 -52.861511 -25.275656 -51.835899 101.720039 -1.675497 0.847332 24.122175 0.076121 6.375665 
0.000000 7.793022 -6.977692 39.009914 -66.001007 -91.995461 9.154881 12.794290 17.741196 16.973696 17.595825 16.618212 12.707701 -26.021269 -1.740090 -3.844929 24.585300 -23.897785 32.948914 30.369963 -36.315350 -28.493532 -36.727985 -27.997108 -133.851181 21.561344 35.956909 34.420979 15.291998 -0.120103 -11.289195 7.288716 -6.242574 7.351966 11.972348 36.845013 59.361774 4.453818 -15.186637 -20.270380 9.661158 19.278435 -38.827766 15.055754 44.243889 51.141132 6.503413 -3.824420 22.102127 -0.283422 -7.227368 -52.861511 -25.275656 -51.835899 101.720039 -1.675497 0.847332 24.122175 0.076121 6.375665 
0.000000 7.793022 -6.977692 39.009914 -66.001007 -91.995461 9.154881 12.794290 17.741196 16.973696 17.595825 16.618212 12.707701 -26.021269 -1.740090 -3.946571 24.582352 -23.808966 32.948914 30.369963 -36.315350 -28.493532 -36.727985 -27.997108 -133.851181 21.561344 35.956909 34.420979 15.291998 -0.120103 -11.289195 7.288716 -6.242574 7.383967 12.030012 36.928776 59.148361 4.445743 -15.177915 -20.384918 9.682556 19.146782 -38.827766 15.055754 44.243889 51.141132 6.503413 -3.824420 22.102125 -0.283422 -7.227367 -52.861511 -25.275656 -51.835899 101.720039 -1.675497 0.847332 24.122175 0.076121 6.375665 
0.000000 7.793022 -6.977692 39.009914 -66.001007 -91.995461 9.154881 12.794290 17.741196 16.973696 17.595825 16.618212 12.707701 -26.021269 -1.740090 -4.048232 24.579536 -23.720123 32.948914 30.369963 -36.315350 -28.493532 -36.727985 -27.997108 -133.851181 21.561344 35.956909 34.420979 15.291998 -0.120103 -11.289195 7.288716 -6.242574 7.416064 12.087632 37.012604 58.934895 4.437631 -15.169220 -20.499521 9.703695 19.015055 -38.827766 15.055754 44.243889 51.141132 6.503413 -3.824420 22.102125 -0.283422 -7.227367 -52.861511 -25.275656 -51.835899 101.720039 -1.675497 0.847332 24.122175 0.076121 6.375665 
0.000000 7.793022 -6.977692 39.009914 -66.001007 -91.995461 9.154881 12.794290 17.741196 16.973696 17.595825 16.618212 12.707701 -26.021269 -1.740090 -4.149912 24.576872 -23.631266 32.948914 30.369963 -36.315350 -28.493532 -36.727985 -27.997108 -133.851181 21.561344 35.956909 34.420979 15.291998 -0.120103 -11.289195 7.288716 -6.242574 7.448255 12.145208 37.096478 58.721397 4.429489 -15.160555 -20.614201 9.724579 18.883268 -38.827766 15.055754 44.243889 51.141132 6.503413 -3.824420 22.102127 -0.283421 -7.227368 -52.861511 -25.275656 -51.835899 101.720039 -1.675497 0.847332 24.122175 0.076121 6.375665 
0.000000 7.793022 -6.977692 39.009914 -66.001007 -91.995461 9.154881 12.794290 17.741196 16.973696 17.595825 16.618212 12.707701 -26.021269 -1.740090 -4.251613 24.574350 -23.542393 32.948914 30.369963 -36.315350 -28.493532 -36.727985 -27.997108 -133.851181 21.561344 35.956909 34.420979 15.291998 -0.120103 -11.289195 7.288716 -6.242574 7.480541 12.202744 37.180420 58.507858 4.421312 -15.151916 -20.728947 9.745204 18.751417 -38.827766 15.055754 44.243889 51.141132 6.503413 -3.824420 22.102127 -0.283422 -7.227368 -52.861511 -25.275656 -51.835899 101.720039 -1.675497 0.847332 24.122175 0.076121 6.375665 
0.000000 7.793022 -6.977692 39.009914 -66.001007 -91.995461 9.154881 12.794290 17.741196 16.973696 17.595825 16.618212 12.707701 -26.021269 -1.740090 -4.353329 24.571966 -23.453497 32.948914 30.369963 -36.315350 -28.493532 -36.727985 -27.997108 -133.851181 21.561344 35.956909 34.420979 15.291998 -0.120103 -11.289195 7.288716 -6.242574 7.512922 12.260236 37.264412 58.294300 4.413100 -15.143315 -20.843760 9.765572 18.619501 -38.827766 15.055754 44.243889 51.141132 6.503413 -3.824420 22.102127 -0.283422 -7.227368 -52.861511 -25.275656 -51.835899 101.720039 -1.675497 0.847332 24.122175 0.076121 6.375665 
0.000000 7.793022 -6.977692 39.009914 -66.001007 -91.995461 9.154881 12.794290 17.741196 16.973696 17.595825 16.618212 12.707701 -26.021269 -1.740090 -4.455065 24.569733 -23.364592 32.948914 30.369963 -36.315350 -28.493532 -36.727985 -27.997108 -133.851181 21.561344 35.956909 34.420979 15.291998 -0.120103 -11.289195 7.288716 -6.242574 7.545397 12.317680 37.348454 58.080677 4.404856 -15.134734 -20.958639 9.785680 18.487518 -38.827766 15.055754 44.243889 51.141132 6.503413 -3.824420 22.102127 -0.283422 -7.227368 -52.861511 -25.275656 -51.835899 101.720039 -1.675497 0.847332 24.122175 0.076121 6.375665 
